# xmcd
#
# Track frame offsets:
# 182
# 16590
# 28807
# 45722
# 64082
# 87472
# 103917
# 120307
# 136107
# 159000
#
# Disc length: 2472 seconds
#
#
# Revision: 5
# Processed by: cddbd v1.5.1PL2 Copyright (c) Steve Scherf et al.
# Submitted via: FreeRIP 2.944 
#
DISCID=7309a60a
DTITLE=Maria McKee - You Gotta Sin To Get Saved
DYEAR=1993
DGENRE=Country
TTITLE0=I'm Gonna Soothe You
TTITLE1=My Lonely Sad Eyes
TTITLE2=My Girlhood Among The Outlaws
TTITLE3=Only Once
TTITLE4=I Forgive You
TTITLE5=I Can't Make It Alone
TTITLE6=Precious Time
TTITLE7=The Way Young Lovers Do
TTITLE8=Why Wasn't I More Grateful (When Life Was Sweet)
TTITLE9=You Gotta Sin To Get Saved
EXTD=
EXTT0=
EXTT1=
EXTT2=
EXTT3=
EXTT4=
EXTT5=
EXTT6=
EXTT7=
EXTT8=
EXTT9=
PLAYORDER=
